<?xml version="1.0" encoding="utf-8"?>
<!-- Generator: Adobe Illustrator 23.0.3, SVG Export Plug-In . SVG Version: 6.00 Build 0)  -->
<svg version="1.1" id="Layer_1" xmlns="http://www.w3.org/2000/svg" xmlns:xlink="http://www.w3.org/1999/xlink" x="0px" y="0px"
	 viewBox="0 0 220.4 51.4" style="enable-background:new 0 0 220.4 51.4;" xml:space="preserve">
<style type="text/css">
	.st0{fill:#FFFFFF;}
	.st1{fill:#F89823;}
	.st2{fill:url(#SVGID_1_);}
	.st3{fill:url(#SVGID_2_);}
</style>
<g>
	<path class="st0" d="M10.6,12.4H0v-5h27.1v5H16.5v26.9h-5.9V12.4z"/>
	<path class="st0" d="M133.9,7.3v31.9H129l-17.6-21.6v21.6h-5.9V7.3h4.9L128,29V7.3H133.9z"/>
	<path class="st0" d="M140.7,7.3h5.9v31.9h-5.9V7.3z"/>
	<path class="st0" d="M181.8,7.3v31.9h-4.9l-17.6-21.6v21.6h-5.9V7.3h4.9L175.9,29V7.3H181.8z"/>
	<path class="st0" d="M217.7,20.9h-13.3v5.6h7.7v6.3c-1.9,1.1-4.1,1.6-6.6,1.6c-2.2,0-4.2-0.5-6-1.5c-1.7-1-3.1-2.3-4.1-4
		c-1-1.7-1.5-3.6-1.5-5.7c0-2.2,0.5-4.1,1.5-5.8c1-1.7,2.4-3,4.1-4c1.7-0.9,3.7-1.4,6-1.4c3.4,0,6.4,1.2,8.8,3.6l3.7-3.6
		c-1.5-1.7-3.3-3-5.5-3.9c-2.2-0.9-4.6-1.3-7.3-1.3c-3.3,0-6.2,0.7-8.9,2.1c-2.6,1.4-4.7,3.4-6.2,5.9c-1.5,2.5-2.2,5.3-2.2,8.4
		c0,3.1,0.7,5.9,2.2,8.4c1.5,2.5,3.5,4.4,6.2,5.9c2.6,1.4,5.5,2.1,8.8,2.1c2.3,0,4.6-0.3,6.8-1s4.1-1.7,5.7-3V22.9h0V20.9z"/>
	<path class="st0" d="M51.5,28.8c2.2-0.9,3.9-2.1,5-3.9c1.2-1.7,1.8-3.8,1.8-6.2c0-2.3-0.5-4.4-1.6-6.1c-1.1-1.7-2.7-3-4.7-3.9
		s-4.5-1.4-7.2-1.4H31.6v31.9h5.9V30h7.2c0.5,0,1,0,1.2,0L54,41.9l2.4-6L51.5,28.8z M50.3,23.4c-1.3,1.1-3.3,1.7-5.9,1.7h-6.9V12.4
		h6.9c2.6,0,4.5,0.5,5.9,1.6c1.3,1.1,2,2.7,2,4.7C52.3,20.7,51.7,22.3,50.3,23.4z"/>
	<polygon class="st0" points="97.8,39.3 97.8,7.3 91.9,7.3 91.9,35.4 93.5,39.3 	"/>
	<g>
		<rect x="69.4" y="32.8" transform="matrix(0.9926 -0.1218 0.1218 0.9926 -4.0307 9.3219)" class="st1" width="9.6" height="9.7"/>
		<polygon class="st1" points="93.5,39.3 91.9,35.4 77.7,0 71,0 56.5,35.9 54,41.9 50.2,51.4 59.3,51.4 74.3,13.2 89.3,51.4 
			98.3,51.4 		"/>
	</g>
	<g>
		<linearGradient id="SVGID_1_" gradientUnits="userSpaceOnUse" x1="10.6981" y1="48.3617" x2="220.366" y2="48.3617">
			<stop  offset="0" style="stop-color:#F89823"/>
			<stop  offset="1" style="stop-color:#A66E26"/>
		</linearGradient>
		<polygon class="st2" points="220.4,51.4 219.6,45.4 100.2,45.4 102.6,51.4 		"/>
		<linearGradient id="SVGID_2_" gradientUnits="userSpaceOnUse" x1="10.6981" y1="48.3617" x2="220.366" y2="48.3617">
			<stop  offset="0" style="stop-color:#F89823"/>
			<stop  offset="1" style="stop-color:#A66E26"/>
		</linearGradient>
		<polygon class="st3" points="10.7,45.4 11.4,51.4 46,51.4 48.4,45.4 		"/>
	</g>
</g>
</svg>
